<svg width="170" height="57" viewBox="0 0 170 57" fill="none" xmlns="http://www.w3.org/2000/svg">
    <rect x="0.70746" y="0.70746" width="168.375" height="55.1819" rx="9.19698" fill="black"/>
    <path d="M115.353 27.1677V30.4093H113.321V32.5352H115.353V39.7583C115.353 42.2247 116.468 43.2113 119.275 43.2113C119.769 43.2113 120.238 43.1526 120.65 43.0821V40.9798C120.297 41.015 120.074 41.0385 119.686 41.0385C118.43 41.0385 117.878 40.4513 117.878 39.1123V32.5352H120.65V30.4093H117.878V27.1677H115.353Z" fill="white"/>
    <path d="M127.8 43.3875C131.535 43.3875 133.825 40.8858 133.825 36.7399C133.825 32.6174 131.523 30.104 127.8 30.104C124.065 30.104 121.763 32.6174 121.763 36.7399C121.763 40.8858 124.054 43.3875 127.8 43.3875ZM127.8 41.1442C125.604 41.1442 124.371 39.5352 124.371 36.7399C124.371 33.9681 125.604 32.3473 127.8 32.3473C129.985 32.3473 131.23 33.9681 131.23 36.7399C131.23 39.5234 129.985 41.1442 127.8 41.1442Z" fill="white"/>
    <path d="M135.785 43.1409H138.31V35.5889C138.31 33.7919 139.661 32.5822 141.575 32.5822C142.022 32.5822 142.773 32.6644 142.985 32.7348V30.2449C142.715 30.1744 142.233 30.1392 141.857 30.1392C140.189 30.1392 138.768 31.0553 138.404 32.312H138.216V30.3506H135.785V43.1409Z" fill="white"/>
    <path d="M149.255 32.2533C151.122 32.2533 152.343 33.557 152.402 35.5654H145.942C146.083 33.5687 147.387 32.2533 149.255 32.2533ZM152.39 39.6878C151.921 40.6862 150.875 41.2382 149.349 41.2382C147.328 41.2382 146.025 39.817 145.942 37.5738V37.4328H154.974V36.5519C154.974 32.5352 152.825 30.104 149.266 30.104C145.661 30.104 143.37 32.6996 143.37 36.7868C143.37 40.8741 145.614 43.3875 149.278 43.3875C152.203 43.3875 154.246 41.9781 154.822 39.6878H152.39Z" fill="white"/>
    <path d="M98.7929 38.4176C98.9877 41.5583 101.605 43.5669 105.5 43.5669C109.664 43.5669 112.269 41.4609 112.269 38.1011C112.269 35.4595 110.784 33.9987 107.18 33.1588L105.245 32.684C102.956 32.1484 102.031 31.4302 102.031 30.1763C102.031 28.5938 103.467 27.5591 105.622 27.5591C107.667 27.5591 109.079 28.5694 109.335 30.1885H111.989C111.831 27.2304 109.225 25.1487 105.659 25.1487C101.824 25.1487 99.2677 27.2304 99.2677 30.3589C99.2677 32.9396 100.716 34.4735 103.894 35.216L106.158 35.7638C108.483 36.3116 109.505 37.1151 109.505 38.4541C109.505 40.0123 107.899 41.1444 105.707 41.1444C103.358 41.1444 101.727 40.0854 101.495 38.4176H98.7929Z" fill="white"/>
    <path d="M72.6349 30.1392C70.8966 30.1392 69.3933 31.0083 68.6181 32.4647H68.4302V30.3506H65.999V47.3925H68.5241V41.2029H68.7238C69.3933 42.5536 70.8379 43.3523 72.6583 43.3523C75.8882 43.3523 77.9436 40.8036 77.9436 36.7399C77.9436 32.6761 75.8882 30.1392 72.6349 30.1392ZM71.9184 41.0855C69.8043 41.0855 68.4771 39.4177 68.4771 36.7516C68.4771 34.0738 69.8043 32.406 71.9302 32.406C74.0677 32.406 75.3479 34.0385 75.3479 36.7399C75.3479 39.4529 74.0677 41.0855 71.9184 41.0855Z" fill="white"/>
    <path d="M86.7795 30.1392C85.0413 30.1392 83.5379 31.0083 82.7627 32.4647H82.5748V30.3506H80.1436V47.3925H82.6688V41.2029H82.8685C83.5379 42.5536 84.9825 43.3523 86.803 43.3523C90.0329 43.3523 92.0882 40.8036 92.0882 36.7399C92.0882 32.6761 90.0329 30.1392 86.7795 30.1392ZM86.0631 41.0855C83.949 41.0855 82.6218 39.4177 82.6218 36.7516C82.6218 34.0738 83.949 32.406 86.0748 32.406C88.2124 32.406 89.4926 34.0385 89.4926 36.7399C89.4926 39.4529 88.2124 41.0855 86.0631 41.0855Z" fill="white"/>
    <path d="M61.4684 43.1409H64.3656L58.0234 25.5748H55.0896L48.7473 43.1409H51.5472L53.1662 38.4785H59.8615L61.4684 43.1409ZM56.4165 28.7642H56.6234L59.1676 36.1899H53.8601L56.4165 28.7642Z" fill="white"/>
    <path d="M50.4434 12.3253V20.7992H53.5029C56.0281 20.7992 57.4903 19.243 57.4903 16.5358C57.4903 13.8697 56.0163 12.3253 53.5029 12.3253H50.4434ZM51.7588 13.5233H53.3561C55.112 13.5233 56.1514 14.639 56.1514 16.5534C56.1514 18.4972 55.1296 19.6013 53.3561 19.6013H51.7588V13.5233Z" fill="white"/>
    <path d="M61.9687 20.9226C63.8361 20.9226 64.9812 19.6717 64.9812 17.5987C64.9812 15.5375 63.8302 14.2808 61.9687 14.2808C60.1012 14.2808 58.9502 15.5375 58.9502 17.5987C58.9502 19.6717 60.0953 20.9226 61.9687 20.9226ZM61.9687 19.8009C60.8705 19.8009 60.2539 18.9964 60.2539 17.5987C60.2539 16.2128 60.8705 15.4024 61.9687 15.4024C63.0609 15.4024 63.6834 16.2128 63.6834 17.5987C63.6834 18.9905 63.0609 19.8009 61.9687 19.8009Z" fill="white"/>
    <path d="M74.7331 14.4041H73.4705L72.3312 19.2841H72.2314L70.916 14.4041H69.7062L68.3908 19.2841H68.2968L67.1517 14.4041H65.8715L67.6332 20.7992H68.9311L70.2465 16.0895H70.3463L71.6676 20.7992H72.9772L74.7331 14.4041Z" fill="white"/>
    <path d="M76.1871 20.7992H77.4497V17.0585C77.4497 16.0602 78.0428 15.4377 78.9765 15.4377C79.9102 15.4377 80.3565 15.9486 80.3565 16.9763V20.7992H81.6191V16.6592C81.6191 15.1382 80.8322 14.2808 79.4052 14.2808C78.4421 14.2808 77.8079 14.7095 77.4966 15.4201H77.4027V14.4041H76.1871V20.7992Z" fill="white"/>
    <path d="M83.6075 20.7992H84.8701V11.9083H83.6075V20.7992Z" fill="white"/>
    <path d="M89.6186 20.9226C91.486 20.9226 92.6312 19.6717 92.6312 17.5987C92.6312 15.5375 91.4802 14.2808 89.6186 14.2808C87.7511 14.2808 86.6001 15.5375 86.6001 17.5987C86.6001 19.6717 87.7453 20.9226 89.6186 20.9226ZM89.6186 19.8009C88.5204 19.8009 87.9038 18.9964 87.9038 17.5987C87.9038 16.2128 88.5204 15.4024 89.6186 15.4024C90.7109 15.4024 91.3334 16.2128 91.3334 17.5987C91.3334 18.9905 90.7109 19.8009 89.6186 19.8009Z" fill="white"/>
    <path d="M96.3931 19.842C95.706 19.842 95.2068 19.5073 95.2068 18.9318C95.2068 18.368 95.6062 18.0685 96.487 18.0098L98.0491 17.91V18.4444C98.0491 19.2372 97.3444 19.842 96.3931 19.842ZM96.0701 20.9049C96.9098 20.9049 97.6087 20.5409 97.9904 19.9008H98.0902V20.7992H99.3058V16.4301C99.3058 15.0795 98.4014 14.2808 96.7983 14.2808C95.3478 14.2808 94.3142 14.9855 94.185 16.0836H95.4065C95.5474 15.6315 96.0348 15.3731 96.7395 15.3731C97.6028 15.3731 98.0491 15.7548 98.0491 16.4301V16.9821L96.3167 17.082C94.7958 17.1759 93.9384 17.8395 93.9384 18.9905C93.9384 20.1591 94.8369 20.9049 96.0701 20.9049Z" fill="white"/>
    <path d="M103.59 20.9049C104.471 20.9049 105.217 20.488 105.599 19.7892H105.699V20.7992H106.908V11.9083H105.646V15.4201H105.552C105.205 14.7154 104.465 14.2984 103.59 14.2984C101.975 14.2984 100.936 15.5786 100.936 17.5987C100.936 19.6247 101.964 20.9049 103.59 20.9049ZM103.949 15.4318C105.006 15.4318 105.669 16.2716 105.669 17.6046C105.669 18.9435 105.012 19.7716 103.949 19.7716C102.88 19.7716 102.24 18.9553 102.24 17.5987C102.24 16.254 102.886 15.4318 103.949 15.4318Z" fill="white"/>
    <path d="M115.096 20.9226C116.963 20.9226 118.108 19.6717 118.108 17.5987C118.108 15.5375 116.957 14.2808 115.096 14.2808C113.228 14.2808 112.077 15.5375 112.077 17.5987C112.077 19.6717 113.222 20.9226 115.096 20.9226ZM115.096 19.8009C113.998 19.8009 113.381 18.9964 113.381 17.5987C113.381 16.2128 113.998 15.4024 115.096 15.4024C116.188 15.4024 116.81 16.2128 116.81 17.5987C116.81 18.9905 116.188 19.8009 115.096 19.8009Z" fill="white"/>
    <path d="M119.78 20.7992H121.042V17.0585C121.042 16.0602 121.635 15.4377 122.569 15.4377C123.503 15.4377 123.949 15.9486 123.949 16.9763V20.7992H125.212V16.6592C125.212 15.1382 124.425 14.2808 122.998 14.2808C122.035 14.2808 121.4 14.7095 121.089 15.4201H120.995V14.4041H119.78V20.7992Z" fill="white"/>
    <path d="M131.027 12.8127V14.4335H130.011V15.4964H131.027V19.108C131.027 20.3412 131.584 20.8345 132.988 20.8345C133.235 20.8345 133.469 20.8051 133.675 20.7699V19.7187C133.499 19.7363 133.387 19.7481 133.193 19.7481C132.565 19.7481 132.289 19.4544 132.289 18.785V15.4964H133.675V14.4335H132.289V12.8127H131.027Z" fill="white"/>
    <path d="M135.37 20.7992H136.632V17.0644C136.632 16.0954 137.208 15.4436 138.241 15.4436C139.134 15.4436 139.61 15.9603 139.61 16.9821V20.7992H140.872V16.6709C140.872 15.1499 140.033 14.2867 138.67 14.2867C137.707 14.2867 137.032 14.7154 136.72 15.4318H136.621V11.9083H135.37V20.7992Z" fill="white"/>
    <path d="M145.427 15.3555C146.361 15.3555 146.971 16.0073 147.001 17.0115H143.771C143.841 16.0132 144.493 15.3555 145.427 15.3555ZM146.995 19.0727C146.76 19.5719 146.237 19.8479 145.474 19.8479C144.464 19.8479 143.812 19.1373 143.771 18.0157V17.9452H148.287V17.5048C148.287 15.4964 147.212 14.2808 145.433 14.2808C143.63 14.2808 142.485 15.5786 142.485 17.6222C142.485 19.6659 143.607 20.9226 145.439 20.9226C146.901 20.9226 147.923 20.2179 148.211 19.0727H146.995Z" fill="white"/>
    <path d="M35.0461 28.724C35.0768 26.3455 36.3541 24.095 38.3805 22.8492C37.1021 21.0235 34.961 19.8659 32.7333 19.7962C30.3573 19.5469 28.0539 21.218 26.8431 21.218C25.6089 21.218 23.7448 19.821 21.7374 19.8623C19.1209 19.9468 16.6816 21.4345 15.4086 23.722C12.6721 28.4598 14.7133 35.4227 17.3346 39.2523C18.6461 41.1276 20.1788 43.2223 22.1844 43.148C24.147 43.0666 24.88 41.8965 27.249 41.8965C29.596 41.8965 30.2837 43.148 32.3299 43.1008C34.4359 43.0666 35.7627 41.2172 37.0282 39.3241C37.9705 37.9879 38.6956 36.5112 39.1766 34.9485C36.7018 33.9017 35.049 31.4111 35.0461 28.724Z" fill="white"/>
    <path d="M31.181 17.2777C32.3293 15.8993 32.895 14.1275 32.758 12.3387C31.0037 12.523 29.3833 13.3614 28.2195 14.687C27.0815 15.9821 26.4893 17.7226 26.6013 19.4431C28.3562 19.4611 30.0814 18.6454 31.181 17.2777Z" fill="white"/>
    <rect x="0.70746" y="0.70746" width="168.375" height="55.1819" rx="9.19698" stroke="#A6A6A6" stroke-width="1.41492"/>
</svg>
